<svg id="visual" viewBox="0 0 900 600" width="900" height="600" xmlns="http://www.w3.org/2000/svg" xmlns:xlink="http://www.w3.org/1999/xlink" version="1.1"><path d="M0 169L16.7 168C33.3 167 66.7 165 100 166C133.3 167 166.7 171 200 175C233.3 179 266.7 183 300 177C333.3 171 366.7 155 400 159C433.3 163 466.7 187 500 192C533.3 197 566.7 183 600 175C633.3 167 666.7 165 700 162C733.3 159 766.7 155 800 163C833.3 171 866.7 191 883.3 201L900 211L900 0L883.3 0C866.7 0 833.3 0 800 0C766.7 0 733.3 0 700 0C666.7 0 633.3 0 600 0C566.7 0 533.3 0 500 0C466.7 0 433.3 0 400 0C366.7 0 333.3 0 300 0C266.7 0 233.3 0 200 0C166.7 0 133.3 0 100 0C66.7 0 33.3 0 16.7 0L0 0Z" fill="#9480f6"></path><path d="M0 415L16.7 411C33.3 407 66.7 399 100 392C133.3 385 166.7 379 200 375C233.3 371 266.7 369 300 366C333.3 363 366.7 359 400 363C433.3 367 466.7 379 500 385C533.3 391 566.7 391 600 389C633.3 387 666.7 383 700 378C733.3 373 766.7 367 800 368C833.3 369 866.7 377 883.3 381L900 385L900 209L883.3 199C866.7 189 833.3 169 800 161C766.7 153 733.3 157 700 160C666.7 163 633.3 165 600 173C566.7 181 533.3 195 500 190C466.7 185 433.3 161 400 157C366.7 153 333.3 169 300 175C266.7 181 233.3 177 200 173C166.7 169 133.3 165 100 164C66.7 163 33.3 165 16.7 166L0 167Z" fill="#715af0"></path><path d="M0 499L16.7 496C33.3 493 66.7 487 100 480C133.3 473 166.7 465 200 464C233.3 463 266.7 469 300 471C333.3 473 366.7 471 400 470C433.3 469 466.7 469 500 470C533.3 471 566.7 473 600 475C633.3 477 666.7 479 700 478C733.3 477 766.7 473 800 476C833.3 479 866.7 489 883.3 494L900 499L900 383L883.3 379C866.7 375 833.3 367 800 366C766.7 365 733.3 371 700 376C666.7 381 633.3 385 600 387C566.7 389 533.3 389 500 383C466.7 377 433.3 365 400 361C366.7 357 333.3 361 300 364C266.7 367 233.3 369 200 373C166.7 377 133.3 383 100 390C66.7 397 33.3 405 16.7 409L0 413Z" fill="#543ed8"></path><path d="M0 601L16.7 601C33.3 601 66.7 601 100 601C133.3 601 166.7 601 200 601C233.3 601 266.7 601 300 601C333.3 601 366.7 601 400 601C433.3 601 466.7 601 500 601C533.3 601 566.7 601 600 601C633.3 601 666.7 601 700 601C733.3 601 766.7 601 800 601C833.3 601 866.7 601 883.3 601L900 601L900 497L883.3 492C866.7 487 833.3 477 800 474C766.7 471 733.3 475 700 476C666.7 477 633.3 475 600 473C566.7 471 533.3 469 500 468C466.7 467 433.3 467 400 468C366.7 469 333.3 471 300 469C266.7 467 233.3 461 200 462C166.7 463 133.3 471 100 478C66.7 485 33.3 491 16.7 494L0 497Z" fill="#422fb0"></path></svg>