<svg id="visual" viewBox="0 0 960 540" width="960" height="540" xmlns="http://www.w3.org/2000/svg" xmlns:xlink="http://www.w3.org/1999/xlink" version="1.1"><rect x="0" y="0" width="960" height="540" fill="#1d4faa"></rect><defs><linearGradient id="grad1_0" x1="43.8%" y1="100%" x2="100%" y2="0%"><stop offset="14.444444444444446%" stop-color="#1d4faa" stop-opacity="1"></stop><stop offset="85.55555555555554%" stop-color="#1d4faa" stop-opacity="1"></stop></linearGradient></defs><defs><linearGradient id="grad2_0" x1="0%" y1="100%" x2="56.3%" y2="0%"><stop offset="14.444444444444446%" stop-color="#1d4faa" stop-opacity="1"></stop><stop offset="85.55555555555554%" stop-color="#1d4faa" stop-opacity="1"></stop></linearGradient></defs><g transform="translate(960, 540)"><path d="M-432 0C-419.5 -36.3 -407 -72.7 -393.1 -105.3C-379.3 -138 -364 -166.9 -352.5 -203.5C-340.9 -240.1 -333 -284.2 -305.5 -305.5C-277.9 -326.7 -230.6 -325.1 -195.5 -338.6C-160.4 -352.1 -137.4 -380.8 -106.9 -398.9C-76.3 -417 -38.2 -424.5 0 -432L0 0Z" fill="#73a4ff"></path></g><g transform="translate(0, 0)"><path d="M432 0C412.7 34.7 393.3 69.5 378.6 101.5C364 133.4 353.9 162.6 344.7 199C335.5 235.4 327 279.1 300.5 300.5C274 322 229.4 321.2 196.5 340.3C163.6 359.5 142.6 398.7 111.8 417.3C81 435.9 40.5 433.9 0 432L0 0Z" fill="#73a4ff"></path></g></svg>